<?xml version="1.0" encoding="utf-8"?>
<!-- Generator: Adobe Illustrator 16.0.0, SVG Export Plug-In . SVG Version: 6.00 Build 0)  -->
<!DOCTYPE svg PUBLIC "-//W3C//DTD SVG 1.1//EN" "http://www.w3.org/Graphics/SVG/1.1/DTD/svg11.dtd">
<svg version="1.1"
	 id="svg7539" inkscape:export-ydpi="90" inkscape:export-xdpi="90" sodipodi:docname="switch-on.svg" inkscape:version="0.48.4 r9939" inkscape:export-filename="/home/daniel/switch-on.png" xmlns:dc="http://purl.org/dc/elements/1.1/" xmlns:cc="http://creativecommons.org/ns#" xmlns:rdf="http://www.w3.org/1999/02/22-rdf-syntax-ns#" xmlns:svg="http://www.w3.org/2000/svg" xmlns:sodipodi="http://sodipodi.sourceforge.net/DTD/sodipodi-0.dtd" xmlns:inkscape="http://www.inkscape.org/namespaces/inkscape"
	 xmlns="http://www.w3.org/2000/svg" xmlns:xlink="http://www.w3.org/1999/xlink" x="0px" y="0px" width="60px" height="24px"
	 viewBox="0 0 60 24" enable-background="new 0 0 60 24" xml:space="preserve">
<sodipodi:namedview  id="namedview25" inkscape:current-layer="svg7539" inkscape:window-y="28" inkscape:window-x="0" inkscape:window-height="700" inkscape:window-width="1364" inkscape:pageshadow="2" inkscape:pageopacity="0" inkscape:window-maximized="1" guidetolerance="10" inkscape:cy="27.696742" gridtolerance="10" inkscape:cx="49.119662" objecttolerance="10" inkscape:zoom="11.313708" borderopacity="1" showgrid="false" bordercolor="#666666" pagecolor="#ffffff">
	<inkscape:grid  enabled="true" visible="true" type="xygrid" id="grid5373" snapvisiblegridlinesonly="true" empspacing="4">
		</inkscape:grid>
</sodipodi:namedview>
<path id="rect6132-8-2-8-0-0-0-10-0-6-0-6-2-0-5-7-3-3-7-8-4-0-2-5-3-6-7-8-0-5" sodipodi:nodetypes="sssssss" inkscape:connector-curvature="0" opacity="0.99" fill="#FF3E3E" enable-background="new    " d="
	M48,1.5H12C6.183,1.5,1.5,6.183,1.5,12c0,5.816,4.683,10.5,10.5,10.5h36c5.816,0,10.5-4.684,10.5-10.5C58.5,6.183,53.816,1.5,48,1.5
	z"/>
<linearGradient id="rect6132-8-2-8-0-0-0-4-6-9-7-5-4-2-6-1-1-2-7-4-6-3-4-3-0-8-1-1-9_1_" gradientUnits="userSpaceOnUse" x1="-1156.5645" y1="-226.4453" x2="-1156.5645" y2="-249.196" gradientTransform="matrix(-0.2423 0 0 -0.9048 -250.2249 -202.5723)">
	<stop  offset="0" style="stop-color:#000000"/>
	<stop  offset="1" style="stop-color:#000000;stop-opacity:0"/>
</linearGradient>
<path id="rect6132-8-2-8-0-0-0-4-6-9-7-5-4-2-6-1-1-2-7-4-6-3-4-3-0-8-1-1-9" sodipodi:nodetypes="sssssss" inkscape:connector-curvature="0" opacity="0.05" fill="none" stroke="url(#rect6132-8-2-8-0-0-0-4-6-9-7-5-4-2-6-1-1-2-7-4-6-3-4-3-0-8-1-1-9_1_)" stroke-linecap="round" stroke-linejoin="round" enable-background="new    " d="
	M48,2.5H12c-5.263,0-9.5,4.237-9.5,9.5c0,5.263,4.237,9.5,9.5,9.5h36c5.263,0,9.5-4.237,9.5-9.5C57.5,6.737,53.263,2.5,48,2.5z"/>
<linearGradient id="rect6132-8-2-8-0-0-0-4-6-9-7-5-4-2-6-1-1-2-7-4-6-3-0-1-0-16-8-3-0-0-3_1_" gradientUnits="userSpaceOnUse" x1="-56.0503" y1="312.1074" x2="-56.0503" y2="300.8516" gradientTransform="matrix(-0.7662 0 0 1.0952 -12.9482 -317.5167)">
	<stop  offset="0" style="stop-color:#FFFFFF"/>
	<stop  offset="1" style="stop-color:#FFFFFF;stop-opacity:0"/>
</linearGradient>
<path id="rect6132-8-2-8-0-0-0-4-6-9-7-5-4-2-6-1-1-2-7-4-6-3-0-1-0-16-8-3-0-0-3" sodipodi:nodetypes="sssssss" inkscape:connector-curvature="0" opacity="0.1" fill="none" stroke="url(#rect6132-8-2-8-0-0-0-4-6-9-7-5-4-2-6-1-1-2-7-4-6-3-0-1-0-16-8-3-0-0-3_1_)" stroke-linecap="round" stroke-linejoin="round" enable-background="new    " d="
	M48,23.5H12C5.629,23.5,0.5,18.371,0.5,12S5.629,0.5,12,0.5h36c6.371,0,11.5,5.129,11.5,11.5S54.371,23.5,48,23.5z"/>
<path id="rect6132-8-2-8-0-0-0-10-0-6-0-6-2-0-5-7-3-3-7-8-4-0-2-5-3-6-7-8-6-5" sodipodi:nodetypes="sssssss" inkscape:connector-curvature="0" opacity="0.61" fill="none" stroke="#411748" stroke-width="1" stroke-linecap="round" stroke-linejoin="round" enable-background="new    " d="
	M48,1.5H12C6.183,1.5,1.5,6.183,1.5,12c0,5.816,4.683,10.5,10.5,10.5h36c5.816,0,10.5-4.684,10.5-10.5C58.5,6.183,53.816,1.5,48,1.5
	z"/>
<rect id="rect6146" x="11" y="7" opacity="0.3" enable-background="new    " width="2" height="12"/>
<rect id="rect5375" x="11" y="6" fill="#FFFFFF" width="2" height="12"/>
<path id="path3812" sodipodi:type="arc" sodipodi:cx="44" sodipodi:cy="12" sodipodi:rx="6" sodipodi:ry="6" opacity="0.3" fill="none" stroke="#000000" stroke-width="2" enable-background="new    " d="
	M54,13c0,3.313-2.687,6-6,6s-6-2.687-6-6s2.687-6,6-6S54,9.687,54,13z"/>
<path id="path3042" sodipodi:type="arc" sodipodi:cx="44" sodipodi:cy="12" sodipodi:rx="6" sodipodi:ry="6" fill="none" stroke="#FFFFFF" stroke-width="2" d="
	M54,12c0,3.313-2.687,6-6,6s-6-2.687-6-6s2.687-6,6-6S54,8.687,54,12z"/>
</svg>
